HIERARCHY
ROOT Hips
{
	OFFSET 0.000000 100.481300 0.000000
	CHANNELS 6 Xposition Yposition Zposition Xrotation Yrotation Zrotation
	JOINT Spine
	{
		OFFSET -0.279200 12.230698 -2.892100
		CHANNELS 3 Xrotation Yrotation Zrotation
		JOINT Spine1
		{
			OFFSET -0.325700 14.269203 -3.374200
			CHANNELS 3 Xrotation Yrotation Zrotation
			JOINT Spine2
			{
				OFFSET -0.372300 16.307602 -0.352600
				CHANNELS 3 Xrotation Yrotation Zrotation
				JOINT Neck
				{
					OFFSET -0.418800 17.814194 8.416900
					CHANNELS 3 Xrotation Yrotation Zrotation
					JOINT Head
					{
						OFFSET 0.000000 7.031097 3.806800
						CHANNELS 3 Xrotation Yrotation Zrotation
						JOINT HeadTop_End
						{
							OFFSET 0.000000 24.646606 12.978600
							CHANNELS 3 Xrotation Yrotation Zrotation
							End Site
							{
								OFFSET 0.000000 27.854965 0.000000
							}
						}
					}
				}
				JOINT LeftShoulder
				{
					OFFSET 16.952999 14.495407 -7.737500
					CHANNELS 3 Xrotation Yrotation Zrotation
					JOINT LeftArm
					{
						OFFSET 9.308998 -2.777710 0.208600
						CHANNELS 3 Xrotation Yrotation Zrotation
						JOINT LeftForeArm
						{
							OFFSET 29.972298 0.000000 0.000000
							CHANNELS 3 Xrotation Yrotation Zrotation
							JOINT LeftHand
							{
								OFFSET 26.026505 0.000000 0.000000
								CHANNELS 3 Xrotation Yrotation Zrotation
								JOINT LeftHandThumb1
								{
									OFFSET 12.240501 -7.147949 9.207150
									CHANNELS 3 Xrotation Yrotation Zrotation
									JOINT LeftHandThumb2
									{
										OFFSET 4.138618 -2.389435 2.389433
										CHANNELS 3 Xrotation Yrotation Zrotation
										JOINT LeftHandThumb3
										{
											OFFSET 2.726913 -1.574387 1.574386
											CHANNELS 3 Xrotation Yrotation Zrotation
											JOINT LeftHandThumb4
											{
												OFFSET 3.941010 -2.275345 2.275342
												CHANNELS 3 Xrotation Yrotation Zrotation
												End Site
												{
													OFFSET -0.005798 5.087799 0.009903
												}
											}
										}
									}
								}
								JOINT LeftHandIndex1
								{
									OFFSET 24.424698 -1.985611 5.953459
									CHANNELS 3 Xrotation Yrotation Zrotation
									JOINT LeftHandIndex2
									{
										OFFSET 6.426697 0.000000 0.000000
										CHANNELS 3 Xrotation Yrotation Zrotation
										JOINT LeftHandIndex3
										{
											OFFSET 5.337898 0.000000 0.000000
											CHANNELS 3 Xrotation Yrotation Zrotation
											JOINT LeftHandIndex4
											{
												OFFSET 4.409401 0.000000 0.000000
												CHANNELS 3 Xrotation Yrotation Zrotation
												End Site
												{
													OFFSET 0.000000 4.409363 0.014373
												}
											}
										}
									}
								}
								JOINT LeftHandMiddle1
								{
									OFFSET 23.810104 0.000000 0.000000
									CHANNELS 3 Xrotation Yrotation Zrotation
									JOINT LeftHandMiddle2
									{
										OFFSET 7.176498 0.000000 0.000000
										CHANNELS 3 Xrotation Yrotation Zrotation
										JOINT LeftHandMiddle3
										{
											OFFSET 6.774902 0.000000 0.000000
											CHANNELS 3 Xrotation Yrotation Zrotation
											JOINT LeftHandMiddle4
											{
												OFFSET 5.403328 0.000000 0.000000
												CHANNELS 3 Xrotation Yrotation Zrotation
												End Site
												{
													OFFSET -0.027702 5.403244 0.017414
												}
											}
										}
									}
								}
								JOINT LeftHandRing1
								{
									OFFSET 22.908401 -0.839279 -6.020567
									CHANNELS 3 Xrotation Yrotation Zrotation
									JOINT LeftHandRing2
									{
										OFFSET 6.337502 0.000000 0.000000
										CHANNELS 3 Xrotation Yrotation Zrotation
										JOINT LeftHandRing3
										{
											OFFSET 5.779297 0.000000 0.000000
											CHANNELS 3 Xrotation Yrotation Zrotation
											JOINT LeftHandRing4
											{
												OFFSET 4.965698 0.000000 0.000000
												CHANNELS 3 Xrotation Yrotation Zrotation
												End Site
												{
													OFFSET 0.000000 4.965668 0.016186
												}
											}
										}
									}
								}
								JOINT LeftHandPinky1
								{
									OFFSET 20.037003 -1.530319 -10.950146
									CHANNELS 3 Xrotation Yrotation Zrotation
									JOINT LeftHandPinky2
									{
										OFFSET 5.254700 0.000000 0.000000
										CHANNELS 3 Xrotation Yrotation Zrotation
										JOINT LeftHandPinky3
										{
											OFFSET 4.810204 0.000000 0.000000
											CHANNELS 3 Xrotation Yrotation Zrotation
											JOINT LeftHandPinky4
											{
												OFFSET 3.647202 0.000000 0.000000
												CHANNELS 3 Xrotation Yrotation Zrotation
												End Site
												{
													OFFSET 0.000000 3.647186 0.011889
												}
											}
										}
									}
								}
							}
						}
					}
				}
				JOINT RightShoulder
				{
					OFFSET -15.141001 14.495407 -7.737500
					CHANNELS 3 Xrotation Yrotation Zrotation
					JOINT RightArm
					{
						OFFSET -9.308998 -2.777710 0.208500
						CHANNELS 3 Xrotation Yrotation Zrotation
						JOINT RightForeArm
						{
							OFFSET -29.972300 0.000000 0.000000
							CHANNELS 3 Xrotation Yrotation Zrotation
							JOINT RightHand
							{
								OFFSET -26.026505 0.000000 0.000000
								CHANNELS 3 Xrotation Yrotation Zrotation
								JOINT RightHandThumb1
								{
									OFFSET -12.240601 -7.148026 9.207092
									CHANNELS 3 Xrotation Yrotation Zrotation
									JOINT RightHandThumb2
									{
										OFFSET -4.138618 -2.389435 2.389433
										CHANNELS 3 Xrotation Yrotation Zrotation
										JOINT RightHandThumb3
										{
											OFFSET -2.726974 -1.574417 1.574421
											CHANNELS 3 Xrotation Yrotation Zrotation
											JOINT RightHandThumb4
											{
												OFFSET -3.941010 -2.275345 2.275343
												CHANNELS 3 Xrotation Yrotation Zrotation
												End Site
												{
													OFFSET 0.005814 5.087799 0.009927
												}
											}
										}
									}
								}
								JOINT RightHandIndex1
								{
									OFFSET -24.424698 -1.985657 5.953444
									CHANNELS 3 Xrotation Yrotation Zrotation
									JOINT RightHandIndex2
									{
										OFFSET -6.426697 0.000000 0.000000
										CHANNELS 3 Xrotation Yrotation Zrotation
										JOINT RightHandIndex3
										{
											OFFSET -5.337898 0.000000 0.000000
											CHANNELS 3 Xrotation Yrotation Zrotation
											JOINT RightHandIndex4
											{
												OFFSET -4.409401 0.000000 0.000000
												CHANNELS 3 Xrotation Yrotation Zrotation
												End Site
												{
													OFFSET 0.000000 4.409363 0.014408
												}
											}
										}
									}
								}
								JOINT RightHandMiddle1
								{
									OFFSET -23.810097 0.000000 0.000000
									CHANNELS 3 Xrotation Yrotation Zrotation
									JOINT RightHandMiddle2
									{
										OFFSET -7.176498 0.000000 0.000000
										CHANNELS 3 Xrotation Yrotation Zrotation
										JOINT RightHandMiddle3
										{
											OFFSET -6.774902 0.000000 0.000000
											CHANNELS 3 Xrotation Yrotation Zrotation
											JOINT RightHandMiddle4
											{
												OFFSET -5.403328 0.000000 0.000000
												CHANNELS 3 Xrotation Yrotation Zrotation
												End Site
												{
													OFFSET 0.027702 5.403244 0.017457
												}
											}
										}
									}
								}
								JOINT RightHandRing1
								{
									OFFSET -22.908302 -0.839325 -6.020576
									CHANNELS 3 Xrotation Yrotation Zrotation
									JOINT RightHandRing2
									{
										OFFSET -6.337502 0.000000 0.000000
										CHANNELS 3 Xrotation Yrotation Zrotation
										JOINT RightHandRing3
										{
											OFFSET -5.779297 0.000000 0.000000
											CHANNELS 3 Xrotation Yrotation Zrotation
											JOINT RightHandRing4
											{
												OFFSET -4.965698 0.000000 0.000000
												CHANNELS 3 Xrotation Yrotation Zrotation
												End Site
												{
													OFFSET 0.000000 4.965668 0.016226
												}
											}
										}
									}
								}
								JOINT RightHandPinky1
								{
									OFFSET -20.037003 -1.530334 -10.950259
									CHANNELS 3 Xrotation Yrotation Zrotation
									JOINT RightHandPinky2
									{
										OFFSET -5.254700 0.000000 0.000000
										CHANNELS 3 Xrotation Yrotation Zrotation
										JOINT RightHandPinky3
										{
											OFFSET -4.810204 0.000000 0.000000
											CHANNELS 3 Xrotation Yrotation Zrotation
											JOINT RightHandPinky4
											{
												OFFSET -3.647202 0.000000 0.000000
												CHANNELS 3 Xrotation Yrotation Zrotation
												End Site
												{
													OFFSET 0.000000 3.647186 0.011917
												}
											}
										}
									}
								}
							}
						}
					}
				}
			}
		}
	}
	JOINT LeftUpLeg
	{
		OFFSET 15.427100 -6.655098 0.678600
		CHANNELS 3 Xrotation Yrotation Zrotation
		JOINT LeftLeg
		{
			OFFSET 4.081073 -39.591068 13.024000
			CHANNELS 3 Xrotation Yrotation Zrotation
			JOINT LeftFoot
			{
				OFFSET -4.081074 -37.707932 -15.979700
				CHANNELS 3 Xrotation Yrotation Zrotation
				JOINT LeftToeBase
				{
					OFFSET 5.346399 -15.068900 20.645000
					CHANNELS 3 Xrotation Yrotation Zrotation
					JOINT LeftToe_End
					{
						OFFSET 2.754700 0.931300 11.300900
						CHANNELS 3 Xrotation Yrotation Zrotation
						End Site
						{
							OFFSET 0.000000 11.669021 0.000000
						}
					}
				}
			}
		}
	}
	JOINT RightUpLeg
	{
		OFFSET -15.569500 -6.655098 0.678600
		CHANNELS 3 Xrotation Yrotation Zrotation
		JOINT RightLeg
		{
			OFFSET -4.081825 -39.591045 13.023800
			CHANNELS 3 Xrotation Yrotation Zrotation
			JOINT RightFoot
			{
				OFFSET 4.081824 -37.707954 -15.979600
				CHANNELS 3 Xrotation Yrotation Zrotation
				JOINT RightToeBase
				{
					OFFSET -5.346400 -15.068900 20.645000
					CHANNELS 3 Xrotation Yrotation Zrotation
					JOINT RightToe_End
					{
						OFFSET -2.754700 0.931300 11.300900
						CHANNELS 3 Xrotation Yrotation Zrotation
						End Site
						{
							OFFSET 0.000000 11.669021 0.000000
						}
					}
				}
			}
		}
	}
}
MOTION
Frames: 4
Frame Time: 0.033333
1.071399 97.620247 -0.670739 -3.751392 -5.192694 -3.903272 3.293117 1.525006 2.876807 1.152015 0.339457 1.554607 1.126130 0.361542 1.560797 5.626312 -0.078963 0.454683 -7.563344 1.375723 -0.080566 -0.000000 0.000000 0.000000 1.049451 -17.442066 -12.319424 3.916255 -19.989259 -69.765253 0.000000 -1.459350 0.000003 -33.230397 -1.364818 -6.186672 -0.663000 2.160316 4.832498 11.857409 25.421957 17.057860 -13.813930 3.537279 9.035982 -0.000002 0.000001 0.000002 0.019839 -0.969578 -7.593524 0.267872 1.752892 -17.375742 0.057680 0.820955 -8.037985 -0.000001 0.000000 0.000005 -0.076309 2.665782 -15.696820 0.268783 1.755802 -17.405520 0.300528 1.853984 -18.413331 -0.000000 0.000000 0.000000 0.136906 3.641775 -21.133510 0.386623 2.094789 -20.911910 0.283042 1.800630 -17.865024 0.000000 0.000000 -0.000001 0.933283 5.566719 -27.127312 0.268797 1.755842 -17.405883 0.241907 1.667698 -16.505883 -0.000000 -0.000001 0.000001 1.201512 15.343229 14.705980 13.158864 27.555124 58.785157 0.000003 6.693728 -0.000013 -20.179092 -0.514092 6.782808 -1.664537 -0.182760 -4.223307 12.710952 -29.825329 -16.130938 -15.549402 -3.559414 -12.707122 -0.000000 -0.000000 -0.000000 0.038564 1.262293 6.823718 0.213722 -1.396025 17.407043 0.046026 -0.653850 8.053208 0.000002 -0.000001 -0.000001 -0.136221 -2.205107 14.998865 0.214446 -1.398342 17.436894 0.239769 -1.476530 18.446285 0.000001 -0.000000 0.000001 0.030607 -3.075762 20.451009 0.308447 -1.668278 20.948549 0.225827 -1.434052 17.897078 0.000000 0.000001 -0.000001 0.748876 -4.885242 26.473777 0.214458 -1.398387 17.437220 0.193010 -1.328183 16.535828 -0.000001 0.000000 0.000003 -10.205780 14.660060 11.518877 12.134339 1.647934 4.069506 0.795515 0.806974 -8.235432 -4.928524 0.000007 0.000003 -0.000001 0.000001 0.000000 3.685788 -10.079682 1.720593 6.593001 -8.483480 -2.382428 -5.337394 -3.066146 5.000273 -7.282877 -0.000000 0.000000 0.000000 -0.000000 0.000000 
1.061799 97.533211 -0.612203 -3.924393 -5.147037 -3.890171 3.293806 1.523775 2.851019 1.152016 0.339456 1.554607 1.126131 0.361542 1.560797 5.644164 -0.098995 0.480515 -7.398094 1.292151 -0.078978 -0.000000 0.000000 -0.000000 1.054772 -17.351553 -12.267613 3.868728 -20.151500 -69.733192 0.000005 -1.447187 -0.000006 -31.941240 0.726676 -6.004030 -0.523335 2.100439 4.681849 11.791928 25.378732 17.279776 -13.880297 3.616886 9.117789 -0.000000 -0.000001 0.000003 0.016071 -1.016197 -7.564329 0.268232 1.754049 -17.387529 0.057850 0.822133 -8.049654 0.000000 0.000000 0.000001 -0.098348 2.577276 -15.592806 0.267382 1.751337 -17.359855 0.299078 1.849631 -18.368585 0.000000 0.000001 -0.000003 0.137368 3.643859 -21.154177 0.385022 2.090589 -20.867999 0.281582 1.796109 -17.818536 0.000000 0.000001 0.000000 0.933284 5.566719 -27.127338 0.268629 1.755312 -17.400465 0.241748 1.667160 -16.500415 0.000001 -0.000001 0.000000 1.201852 15.373663 14.675008 13.097403 27.608799 58.873949 -0.000001 6.753596 -0.000027 -19.804461 -0.612497 6.974694 -1.664542 -0.182765 -4.223320 12.511674 -29.733692 -16.718985 -15.844435 -3.921277 -14.025556 -0.000000 0.000002 0.000002 -0.290644 2.029102 7.936899 0.196286 -1.339164 16.676426 0.037991 -0.594237 7.314822 -0.000000 -0.000001 -0.000002 -0.198089 -2.164844 16.940476 0.221490 -1.420550 17.722881 0.247176 -1.498546 18.731628 0.000000 -0.000001 -0.000002 0.095916 -3.309575 22.088004 0.311505 -1.676248 21.053447 0.228387 -1.441963 17.999352 -0.000000 -0.000000 0.000001 0.763419 -4.907303 28.258608 0.212054 -1.390693 17.338280 0.190713 -1.320429 16.436408 -0.000000 -0.000001 -0.000001 -10.117301 14.692726 11.504738 12.371587 1.565668 4.073268 0.657734 0.806124 -8.189971 -4.928526 -0.000002 -0.000002 0.000001 0.000001 -0.000000 3.775410 -10.039626 1.679625 6.890297 -8.542654 -2.428834 -5.549850 -3.083147 5.084816 -7.282879 -0.000020 -0.000002 -0.000000 0.000003 0.000000 
1.051492 97.377762 -0.538235 -4.131555 -5.112866 -3.866582 3.294875 1.522984 2.811152 1.152016 0.334825 1.554607 1.126131 0.357241 1.560797 5.634174 -0.120350 0.527363 -7.066847 1.222899 -0.074351 -0.000000 -0.000000 -0.000000 1.095383 -17.327640 -11.967941 3.743209 -20.279371 -69.979530 -0.000002 -1.361703 0.000006 -31.036182 2.024440 -6.053739 -0.509915 2.130393 4.671978 11.773715 25.369295 17.340867 -13.916020 3.649375 9.176080 -0.000004 0.000001 -0.000005 0.011265 -1.008177 -7.679521 0.269743 1.758859 -17.436831 0.058552 0.827115 -8.098732 0.000002 -0.000000 0.000002 -0.127652 2.492424 -15.806238 0.266182 1.747488 -17.320383 0.297855 1.845947 -18.330635 -0.000000 0.000000 0.000004 0.138422 3.648603 -21.201133 0.381263 2.080723 -20.764825 0.278180 1.785479 -17.709560 -0.000001 0.000001 -0.000000 0.933280 5.566719 -27.127322 0.268071 1.753536 -17.382331 0.241217 1.665363 -16.482080 0.000000 0.000000 0.000002 1.226076 15.443107 14.466506 12.989124 27.725584 58.987016 0.000000 7.127413 -0.000011 -18.679835 -0.458929 7.042992 -1.653535 -0.181566 -4.227431 12.408963 -29.685754 -17.024122 -15.938421 -4.196817 -15.360566 0.000001 -0.000003 -0.000005 -0.727093 2.987363 9.143568 0.172245 -1.256133 15.614880 0.027792 -0.508585 6.255717 0.000001 -0.000001 -0.000002 -0.330146 -2.006513 19.462221 0.227281 -1.438562 17.955444 0.253338 -1.516589 18.965782 0.000001 -0.000001 0.000000 0.101418 -3.397665 24.141304 0.317756 -1.692401 21.266176 0.233826 -1.458578 18.214031 0.000003 0.000001 0.000001 0.629354 -4.740334 30.685660 0.209606 -1.382844 17.237326 0.188347 -1.312364 16.333238 0.000000 0.000002 -0.000000 -10.092748 14.735617 11.516646 12.819583 1.474025 4.088852 0.414876 0.809281 -8.167578 -4.928521 -0.000001 -0.000001 0.000000 0.000000 -0.000000 3.772335 -9.999001 1.623576 7.466034 -8.643465 -2.506751 -5.919788 -3.066940 5.153228 -7.282874 0.000002 0.000000 -0.000000 -0.000002 0.000000 
1.045452 97.222076 -0.439270 -4.361444 -5.099034 -3.860542 3.292581 1.521923 2.780389 1.139868 0.324609 1.554607 1.113950 0.347728 1.560797 5.576210 -0.155182 0.610305 -6.668207 1.097609 -0.025211 -0.000000 -0.000000 0.000000 1.163237 -17.335701 -11.475917 3.619750 -20.345829 -70.450184 -0.000001 -1.275182 -0.000005 -30.816635 2.078787 -6.212175 -0.587176 2.293667 4.822339 11.787877 25.377925 17.292953 -13.926766 3.647916 9.211393 -0.000002 0.000002 0.000002 0.031759 -0.950200 -7.947886 0.271918 1.765765 -17.507499 0.059577 0.834286 -8.169455 0.000000 -0.000000 -0.000000 -0.152989 2.448676 -16.260922 0.265446 1.745129 -17.296322 0.297124 1.843749 -18.307946 -0.000000 -0.000001 0.000002 0.140134 3.656251 -21.276811 0.375076 2.064341 -20.593744 0.272578 1.767853 -17.528936 0.000000 -0.000001 -0.000001 0.932693 5.565805 -27.116826 0.267151 1.750589 -17.352090 0.240329 1.662357 -16.451503 0.000001 -0.000000 0.000003 1.274126 15.519768 14.090148 12.886904 27.870833 58.997275 0.000007 7.850777 -0.000010 -17.145677 0.173506 6.839503 -1.631735 -0.178691 -4.240368 12.449309 -29.704776 -16.904051 -16.043728 -4.357213 -16.475716 -0.000001 -0.000000 -0.000002 -1.080795 3.927044 9.998687 0.147526 -1.164106 14.444573 0.018502 -0.415165 5.103126 0.000002 -0.000000 -0.000002 -0.522984 -1.784550 22.146120 0.230528 -1.448532 18.084025 0.256873 -1.526819 19.098788 -0.000002 0.000001 0.000004 0.015388 -3.308480 26.386725 0.325007 -1.710913 21.510458 0.240285 -1.478059 18.466058 0.000001 -0.000000 -0.000001 0.332210 -4.426921 33.463262 0.207924 -1.377403 17.167428 0.186652 -1.306583 16.259269 0.000000 0.000000 0.000000 -10.036595 14.789842 11.551434 13.301183 1.391053 4.108384 0.102225 0.819008 -8.163448 -4.928526 -0.000000 -0.000000 0.000000 -0.000000 -0.000000 3.807839 -9.975964 1.559000 8.030155 -8.687749 -2.552745 -6.246358 -3.060567 5.265172 -7.287780 0.000015 0.000002 0.000000 -0.000002 -0.000000 
